<?xml version="1.0" encoding="UTF-8"?>
<svg version="1.1" xmlns="http://www.w3.org/2000/svg" width="132" height="127">
<path d="M0 0 C43.56 0 87.12 0 132 0 C132 41.91 132 83.82 132 127 C88.44 127 44.88 127 0 127 C0 85.09 0 43.18 0 0 Z " fill="#F4F4F4" transform="translate(0,0)"/>
<path d="M0 0 C1.10085937 0.06960937 2.20171875 0.13921875 3.3359375 0.2109375 C13.48570269 1.21919232 23.26667036 4.58828313 30.4375 12.1875 C31.72265625 13.94921875 31.72265625 13.94921875 33 16 C33.83337891 17.27810547 33.83337891 17.27810547 34.68359375 18.58203125 C39.28834213 26.52601979 40.50516002 33.9181899 39 43 C36.10873218 50.25959638 29.68368284 56.1879093 23.0546875 60.16796875 C18.56753608 61.98500916 13.51803626 61.65161752 8.88671875 60.453125 C-1.35565974 56.10165358 -7.37217361 45.29326104 -12.95703125 36.19921875 C-15.81585325 31.72240189 -18.65097822 27.97858441 -22.9375 24.8125 C-23.58589844 24.32394531 -24.23429687 23.83539062 -24.90234375 23.33203125 C-29.44440419 20.44778058 -33.13405598 19.7249255 -38.5 19.75 C-39.6034375 19.74484375 -40.706875 19.7396875 -41.84375 19.734375 C-44.96392334 19.99696385 -47.18304814 20.67561218 -50 22 C-37.50507635 6.30124977 -20.16659999 -1.49999504 0 0 Z " fill="#131313" transform="translate(70,5)"/>
<path d="M0 0 C3.67041485 2.79564767 5.78944903 5.54306474 7.21484375 9.8984375 C8.54355266 20.34766686 5.42109379 29.98498458 2.65112305 39.92041016 C0.09467605 49.51255874 -0.37837408 59.03568856 4.71875 67.84375 C6.919003 70.86550738 9.1504501 72.74684196 12.21484375 74.8984375 C13.55075365 75.89499283 14.88460636 76.89432283 16.21484375 77.8984375 C-2.57755668 77.38498394 -17.53219916 71.80276866 -30.78515625 57.8984375 C-38.76910673 47.98569106 -44.40013265 37.50091319 -44.1015625 24.54296875 C-43.09959156 16.16847088 -39.23525453 6.55102713 -32.60546875 1.109375 C-22.72839582 -5.72361644 -10.4772145 -6.46515206 0 0 Z " fill="#131313" transform="translate(49.78515625,46.1015625)"/>
<path d="M0 0 C2.68475092 2.34723938 3.84717014 4.56471634 5.125 7.875 C5.62386719 9.13957031 5.62386719 9.13957031 6.1328125 10.4296875 C10.14892896 22.33331197 9.88894966 39.46281956 5 51 C4.39671875 52.46759766 4.39671875 52.46759766 3.78125 53.96484375 C-1.01089804 64.52088096 -7.99209871 73.61598366 -19 78 C-28.24301809 81.08100603 -38.13868544 81.31493116 -47 77 C-53.87346337 72.98578471 -57.43203077 66.35909204 -60 59 C-60.90456721 53.67617315 -60.75092983 49.59197124 -58.4375 44.6875 C-50.79261581 36.25852513 -43.37131109 33.17589017 -32.4375 30.75 C-20.94811516 28.02490614 -10.34175069 24.74118608 -3 15 C-0.42928185 10.37270733 -0.38269227 5.18648735 0 0 Z " fill="#121212" transform="translate(118,41)"/>
</svg>
